<?xml version="1.0" standalone="no"?><!DOCTYPE svg PUBLIC "-//W3C//DTD SVG 1.1//EN" "http://www.w3.org/Graphics/SVG/1.1/DTD/svg11.dtd"><svg t="1650031337479" class="icon" viewBox="0 0 1024 1024" version="1.1" xmlns="http://www.w3.org/2000/svg" p-id="5123" xmlns:xlink="http://www.w3.org/1999/xlink" width="200" height="200"><defs><style type="text/css"></style></defs><path d="M512 192c-120.512 0-227.008 12.48-292 22.016-53.76 7.872-97.12 48.352-107.008 101.984C104.64 361.632 96 428.384 96 512s8.64 150.4 16.992 196c9.888 53.632 53.248 94.24 107.008 102.016 65.28 9.472 172.128 21.984 292 21.984 119.872 0 226.752-12.48 292-22.016 53.76-7.744 97.12-48.352 107.008-101.984 8.352-45.76 16.992-112.64 16.992-196s-8.512-150.24-16.992-196c-9.888-53.632-53.248-94.112-107.008-102.016C739.008 204.512 632.48 192 512 192z m0 64c116.256 0 220.128 11.872 283.008 20.992A62.912 62.912 0 0 1 848 328c7.744 42.24 16 104.864 16 184 0 79.008-8.256 141.76-16 184a62.624 62.624 0 0 1-52.992 51.008C731.84 756.128 627.488 768 512 768c-115.52 0-220-11.872-283.008-20.992A62.784 62.784 0 0 1 176 696C168.256 653.76 160 591.264 160 512c0-79.36 8.256-141.76 16-184a62.784 62.784 0 0 1 52.992-51.008C291.744 267.872 395.744 256 512 256z m-96 72.992V695.04l48-27.008 224-128L736 512l-48-28-224-128z m64 110.016L607.008 512 480 584.992z" p-id="5124"></path></svg>