<?xml version="1.0" standalone="no"?><!DOCTYPE svg PUBLIC "-//W3C//DTD SVG 1.1//EN" "http://www.w3.org/Graphics/SVG/1.1/DTD/svg11.dtd"><svg t="1661875428236" class="icon" viewBox="0 0 1024 1024" version="1.1" xmlns="http://www.w3.org/2000/svg" p-id="2607" xmlns:xlink="http://www.w3.org/1999/xlink" width="200" height="200"><path d="M203.403947 333.718187c4.662613 14.718293 9.929387 30.624427 15.670613 47.72864a932.911787 932.911787 0 0 0 19.73248 52.507306 578.515627 578.515627 0 0 0 24.999253 52.985174 440.9344 440.9344 0 0 0 30.262614 49.158826v376.408747L3.413333 971.844267V374.75328l199.990614-41.035093z m87.1936-32.535894c0-3.222187-0.23552-6.21568-0.597334-9.089706a76.516693 76.516693 0 0 1-0.597333-9.09312c0-28.699307-1.4336-55.37792 12.079787-80.257707 11.004587-34.208427 40.789333-71.891627 63.39584-89.82528 23.20384-18.78016 50.356907-33.614507 81.332906-44.489387 30.976-10.88512 64.351573-16.27136 99.9936-16.27136 35.638613 0 69.0176 5.382827 99.9936 16.27136 31.095467 10.878293 58.129067 25.709227 81.33632 44.489387 23.207253 18.776747 41.741653 39.35232 62.204587 81.452373 12.438187 25.47712 13.397333 60.04736 13.397333 88.753494v11.482453c0 3.826347-0.488107 7.652693-1.201493 11.47904a366.60224 366.60224 0 0 1-27.26912 97.006933 485.505707 485.505707 0 0 1-51.677867 89.347414 649.816747 649.816747 0 0 1-72.127146 82.650453 1030.208853 1030.208853 0 0 1-87.1936 75.953493 26.112 26.112 0 0 1-17.462614 6.69696 27.306667 27.306667 0 0 1-17.462613-6.69696 909.175467 909.175467 0 0 1-88.39168-76.438186 648.454827 648.454827 0 0 1-72.00768-83.964587 486.894933 486.894933 0 0 1-51.67104-91.262293c-13.390507-31.327573-22.244693-64.341333-26.074453-98.194774z m255.730346-105.977173c-15.43168 0-29.781333 2.276693-42.93632 6.700373-13.1584 4.427093-24.644267 10.642773-34.33472 18.660694-9.68704 8.014507-17.462613 17.343147-23.20384 28.23168a71.799467 71.799467 0 0 0-8.727893 34.327893c0 12.0832 2.870613 23.56224 8.727893 34.327893 5.741227 10.88512 13.5168 20.21376 23.20384 28.23168a106.482347 106.482347 0 0 0 34.33472 18.65728 134.109867 134.109867 0 0 0 42.93632 6.693547c15.43168 0 30.027093-2.269867 43.659947-6.693547 13.513387-4.42368 25.115307-10.642773 34.80576-18.65728 9.690453-8.021333 17.462613-17.343147 23.20384-28.23168 5.74464-10.881707 8.741547-22.244693 8.741547-34.327893s-2.874027-23.565653-8.741547-34.327893a95.44704 95.44704 0 0 0-23.20384-28.23168c-9.690453-8.01792-21.292373-14.2336-34.80576-18.660694a139.1616 139.1616 0 0 0-43.659947-6.700373z m-180.25472 418.4064a1113.18016 1113.18016 0 0 0 65.665707 55.374507 4254.440107 4254.440107 0 0 0 57.52832 43.89888 1164.847787 1164.847787 0 0 0 56.937813 39.232853 1380.99712 1380.99712 0 0 0 31.341227-22.00576c10.042027-6.939307 21.766827-15.909547 34.802347-26.80832 13.1584-10.752 28.23168-22.831787 45.33248-36.348587v304.76288l-291.611307-59.211093v-298.89536h0.003413zM1020.586667 314.579627v598.053546l-290.65216 59.211094V605.955413c4.662613-3.826347 9.089707-7.89504 13.39392-11.96032a435.899733 435.899733 0 0 1 13.28128-11.963733 276.456107 276.456107 0 0 0 42.939733-50.121387c13.277867-19.377493 25.002667-40.072533 35.519147-62.078293a819.186347 819.186347 0 0 0 27.992746-65.90464c8.13056-22.012587 15.3088-42.46528 21.527894-61.607253L1020.586667 314.579627z" p-id="2608"></path></svg>