<?xml version="1.0" standalone="no"?><!DOCTYPE svg PUBLIC "-//W3C//DTD SVG 1.1//EN" "http://www.w3.org/Graphics/SVG/1.1/DTD/svg11.dtd"><svg t="1640015597180" class="icon" viewBox="0 0 1152 1024" version="1.1" xmlns="http://www.w3.org/2000/svg" p-id="11508" xmlns:xlink="http://www.w3.org/1999/xlink" width="225" height="200"><defs><style type="text/css"></style></defs><path d="M767.952003 770.575839v-52.7967c70.523592-39.741516 127.992-138.743329 127.992-237.809137C895.944003 320.939941 895.944003 191.988001 703.956003 191.988001S511.968002 320.939941 511.968002 479.970002c0 99.065808 57.468408 198.067621 127.992 237.809137v52.7967c-217.074433 17.726892-383.976001 124.408224-383.976001 253.360165h895.944003c0-128.951941-166.901569-235.633273-383.976001-253.360165z" fill="" p-id="11509"></path><path d="M327.147553 795.278295c55.292544-36.15774 124.088244-63.612024 199.795513-80.378976a362.665333 362.665333 0 0 1-40.509468-59.004312 366.441097 366.441097 0 0 1-46.461096-175.861009c0-86.010624 0-167.285545 30.590088-233.777389 29.694144-64.507968 83.130804-104.505468 159.222048-119.480533C612.889694 50.300856 567.83651 0.063996 447.972002 0.063996c-191.988001 0-191.988001 128.951941-191.988001 287.982001 0 99.065808 57.468408 198.067621 127.992 237.809137v52.7967c-217.074433 17.726892-383.976001 124.408224-383.976001 253.360165h278.958565c14.527092-12.927192 30.590088-25.150428 48.188988-36.669708z" fill="" p-id="11510"></path></svg>