<?xml version="1.0" standalone="no"?><!DOCTYPE svg PUBLIC "-//W3C//DTD SVG 1.1//EN" "http://www.w3.org/Graphics/SVG/1.1/DTD/svg11.dtd"><svg t="1640440610855" class="icon" viewBox="0 0 1024 1024" version="1.1" xmlns="http://www.w3.org/2000/svg" p-id="4264" xmlns:xlink="http://www.w3.org/1999/xlink" width="200" height="200"><defs><style type="text/css"></style></defs><path d="M553.5 544q0 6.5-5 11.5l-233 233q-5 5-11.5 5t-11.5-5l-25-25q-5-5-5-11.5t5-11.5l196.5-196.5-196.5-196.5q-5-5-5-11.5t5-11.5l25-25q5-5 11.5-5t11.5 5l233 233q5 5 5 11.5zm192 0q0 6.5-5 11.5l-233 233q-5 5-11.5 5t-11.5-5l-25-25q-5-5-5-11.5t5-11.5l196.5-196.5-196.5-196.5q-5-5-5-11.5t5-11.5l25-25q5-5 11.5-5t11.5 5l233 233q5 5 5 11.5z" p-id="4265"></path></svg>