<?xml version="1.0" standalone="no"?><!DOCTYPE svg PUBLIC "-//W3C//DTD SVG 1.1//EN" "http://www.w3.org/Graphics/SVG/1.1/DTD/svg11.dtd"><svg t="1642126743752" class="icon" viewBox="0 0 1024 1024" version="1.1" xmlns="http://www.w3.org/2000/svg" p-id="2145" xmlns:xlink="http://www.w3.org/1999/xlink" width="200" height="200"><defs><style type="text/css"></style></defs><path d="M935.385 1024H88.615c-32.63 0-59.077-26.447-59.077-59.077V157.54c0-32.63 26.447-59.077 59.077-59.077h157.539v-78.77C246.154 8.822 254.976 0 265.846 0h59.077c10.87 0 19.692 8.822 19.692 19.692v78.77h334.77v-78.77C679.385 8.822 688.207 0 699.077 0h59.077c10.87 0 19.692 8.822 19.692 19.692v78.77h157.539c32.63 0 59.077 26.446 59.077 59.076v807.385c0 32.63-26.447 59.077-59.077 59.077z m0-846.77c0-10.87-8.823-19.692-19.693-19.692H777.846v59.077c0 10.87-8.822 19.693-19.692 19.693h-59.077c-10.87 0-19.692-8.822-19.692-19.693v-59.077h-334.77v59.077c0 10.87-8.822 19.693-19.692 19.693h-59.077c-10.87 0-19.692-8.822-19.692-19.693v-59.077H108.308c-10.87 0-19.693 8.823-19.693 19.693v137.846h846.77V177.23z m0 196.924H88.615V945.23c0 10.87 8.823 19.692 19.693 19.692h807.384c10.87 0 19.693-8.822 19.693-19.692V374.154zM817.23 846.769h-78.77c-10.87 0-19.692-8.822-19.692-19.692v-78.77c0-10.87 8.822-19.692 19.693-19.692h78.769c10.87 0 19.692 8.823 19.692 19.693v78.769c0 10.87-8.822 19.692-19.692 19.692z m0-216.615h-78.77c-10.87 0-19.692-8.822-19.692-19.692v-78.77c0-10.87 8.822-19.692 19.693-19.692h78.769c10.87 0 19.692 8.822 19.692 19.692v78.77c0 10.87-8.822 19.692-19.692 19.692z m-256 216.615h-78.77c-10.87 0-19.692-8.822-19.692-19.692v-78.77c0-10.87 8.822-19.692 19.693-19.692h78.769c10.87 0 19.692 8.823 19.692 19.693v78.769c0 10.87-8.822 19.692-19.692 19.692z m0-216.615h-78.77c-10.87 0-19.692-8.822-19.692-19.692v-78.77c0-10.87 8.822-19.692 19.693-19.692h78.769c10.87 0 19.692 8.822 19.692 19.692v78.77c0 10.87-8.822 19.692-19.692 19.692z m-256 216.615h-78.77c-10.87 0-19.692-8.822-19.692-19.692v-78.77c0-10.87 8.822-19.692 19.693-19.692h78.769c10.87 0 19.692 8.823 19.692 19.693v78.769c0 10.87-8.822 19.692-19.692 19.692z m0-216.615h-78.77c-10.87 0-19.692-8.822-19.692-19.692v-78.77c0-10.87 8.822-19.692 19.693-19.692h78.769c10.87 0 19.692 8.822 19.692 19.692v78.77c0 10.87-8.822 19.692-19.692 19.692z" p-id="2146"></path></svg>