<svg width="40" height="40" viewBox="0 0 40 40" fill="none" xmlns="http://www.w3.org/2000/svg">
<circle cx="20" cy="20" r="20" fill="#FEE005"/>
<mask id="mask0_600_76" style="mask-type:alpha" maskUnits="userSpaceOnUse" x="0" y="0" width="40" height="40">
<circle cx="20" cy="20" r="20" fill="#FEE005"/>
</mask>
<g mask="url(#mask0_600_76)">
<path d="M15.7274 10.0032C15.7557 9.70643 15.5295 9.43788 15.2327 9.40961C14.9359 9.38135 14.6674 9.60749 14.6391 9.90431C14.625 10.1163 14.7239 10.3142 14.9076 10.4131C14.4695 12.3071 12.8723 19.1904 12.9006 19.3882L12.8865 19.5296C13.0278 19.8123 13.4942 19.4448 13.4942 19.4448L15.2751 10.4979C15.5013 10.4555 15.6991 10.2577 15.7274 10.0032Z" fill="#20366B"/>
<path d="M11.332 23.4307C11.332 23.4307 12.2225 11.2331 21.9325 10.8514C31.6426 10.4698 31.4023 22.1163 28.1515 25.3671C24.9007 28.6179 17.4662 30.9642 11.332 23.4307Z" fill="#0368FF"/>
<path d="M23.3601 10.8795L22.3707 4.91497C22.3707 4.91497 21.3389 6.51211 19.4026 6.37077C17.4662 6.22943 16.6182 4.91497 16.6182 4.91497C16.6182 4.91497 19.9114 6.22943 22.8371 4.34961C23.7417 9.67814 23.9679 11.4166 23.9679 11.4166L23.3601 10.8795Z" fill="#0368FF"/>
<path d="M24.4343 1C24.4343 1 23.7276 5.38155 28.8158 5.76316C27.2611 9.86203 26.088 12.1659 26.088 12.1659L26.8371 12.5899L29.2822 5.76316C29.2822 5.76316 26.088 4.34976 24.4343 1Z" fill="#0368FF"/>
<path d="M19.3463 27.3882C19.3463 27.3882 13.41 30.0736 12.463 36.858C11.516 43.6423 19.4311 45.4797 20.4205 45.5787C19.954 42.0028 19.0495 35.6425 21.9752 27.9535C20.0954 27.5295 19.3463 27.3882 19.3463 27.3882Z" fill="#0368FF"/>
<path d="M17.9326 29.367C17.9326 29.367 13.226 30.3564 10.484 28.0525C10.484 26.5967 10.4557 24.6886 8.90099 23.9819C9.21194 25.4377 9.35328 25.7487 9.35328 25.7487C9.35328 25.7487 6.30033 24.9854 5 25.4801C5.96111 26.7946 6.22966 27.5154 10.272 28.4483C11.1483 29.2115 12.3638 30.3846 17.1835 30.427C17.763 29.7345 17.9326 29.367 17.9326 29.367Z" fill="#0368FF"/>
<path d="M20.5754 28.2505C20.5754 28.2505 25.8757 29.5508 26.8651 35.9253C27.0488 36.1373 29.2678 38.7945 26.8651 41.1548C26.4693 40.4057 25.805 39.2044 25.9181 37.8758C25.0276 38.6107 24.7874 38.7945 24.8156 38.5825C24.9146 37.5648 26.4693 35.9394 26.4693 35.9394C26.4693 35.9394 24.9994 30.6815 20.7592 29.2681C18.3281 28.8017 20.5754 28.2505 20.5754 28.2505Z" fill="#0368FF"/>
<path d="M15.1059 31.8404C15.1059 31.8404 12.6042 31.586 10.9788 33.3245C9.35337 35.063 9.50884 38.7661 12.3781 38.9781C11.9823 41.0558 11.8975 41.4233 11.8975 41.4233L13.6642 40.547L13.848 39.0629L12.5194 38.5965C12.5194 38.5965 9.2827 38.2007 10.8798 34.8227C11.5441 33.6637 12.3922 33.1973 14.696 32.7733C15.0352 32.2362 15.1059 31.8404 15.1059 31.8404Z" fill="#0368FF"/>
<path d="M19.3176 31.8264C19.3176 31.8264 22.0314 32.5331 23.4448 35.4447C24.4341 37.3952 24.6886 40.2079 22.4836 41.0277C22.1586 41.0983 20.9713 41.169 20.9713 41.169L21.89 43.5011C21.89 43.5011 20.4342 43.3598 19.5155 42.017C19.3742 41.4941 20.0385 40.2927 20.5332 40.5754C20.7452 40.7591 20.7452 40.7591 20.7452 40.7591C20.7452 40.7591 23.7133 41.3951 23.6144 38.1443C23.5154 34.8935 19.6286 33.2257 19.6286 33.2257L19.3176 31.8264Z" fill="#0368FF"/>
<path d="M14.3001 23.968C14.3001 23.968 16.1799 25.3532 19.3177 24.4203C19.2894 25.4521 18.611 26.5828 16.8018 26.2153C15.0068 25.8337 14.2153 24.3638 14.3001 23.968Z" fill="white"/>
<path d="M28.01 23.2608C28.9545 23.2608 29.7202 22.0268 29.7202 20.5047C29.7202 18.9825 28.9545 17.7485 28.01 17.7485C27.0655 17.7485 26.2998 18.9825 26.2998 20.5047C26.2998 22.0268 27.0655 23.2608 28.01 23.2608Z" fill="#20366B"/>
<path d="M27.9676 23.1904C28.8107 23.1904 29.4941 22.0893 29.4941 20.731C29.4941 19.3728 28.8107 18.2717 27.9676 18.2717C27.1246 18.2717 26.4412 19.3728 26.4412 20.731C26.4412 22.0893 27.1246 23.1904 27.9676 23.1904Z" fill="white"/>
<path d="M30.526 11.3887C30.5543 11.0919 30.3281 10.8234 30.0313 10.7951C29.7345 10.7668 29.4659 10.993 29.4377 11.2898C29.4235 11.5018 29.5225 11.6997 29.7062 11.7986C29.2681 13.6926 27.6709 20.5759 27.6992 20.7737L27.6851 20.9151C27.8264 21.1978 28.2928 20.8303 28.2928 20.8303L30.0596 11.8834C30.2999 11.841 30.5119 11.6432 30.526 11.3887Z" fill="#20366B"/>
<path d="M25.5693 21.1535C25.6384 19.4376 22.5077 17.9182 18.5766 17.7599C14.6455 17.6016 11.4027 18.8643 11.3336 20.5803C11.2645 22.2962 14.3953 23.8156 18.3263 23.9739C22.2574 24.1322 25.5002 22.8695 25.5693 21.1535Z" fill="#20366B"/>
<path d="M13.2823 21.4799C13.7741 21.4799 14.1727 21.0812 14.1727 20.5894C14.1727 20.0976 13.7741 19.699 13.2823 19.699C12.7905 19.699 12.3918 20.0976 12.3918 20.5894C12.3918 21.0812 12.7905 21.4799 13.2823 21.4799Z" fill="white"/>
<path d="M22.611 21.9748C23.134 21.9748 23.558 21.5508 23.558 21.0278C23.558 20.5048 23.134 20.0808 22.611 20.0808C22.088 20.0808 21.6641 20.5048 21.6641 21.0278C21.6641 21.5508 22.088 21.9748 22.611 21.9748Z" fill="white"/>
</g>
</svg>
