<svg width="14" height="14" viewBox="0 0 14 14" fill="none" xmlns="http://www.w3.org/2000/svg">
<path fill-rule="evenodd" clip-rule="evenodd" d="M1.04383 1.04287C1.43438 0.652323 2.06758 0.652323 2.45812 1.04287L12.9581 11.5429C13.3487 11.9334 13.3487 12.5666 12.9581 12.9572C12.5676 13.3477 11.9344 13.3477 11.5438 12.9572L1.04383 2.45716C0.653287 2.06661 0.653287 1.43341 1.04383 1.04287Z" fill="#979798"/>
<path fill-rule="evenodd" clip-rule="evenodd" d="M12.9571 1.04287C13.3477 1.43341 13.3477 2.06661 12.9571 2.45716L2.45714 12.9572C2.0666 13.3477 1.4334 13.3477 1.04285 12.9572C0.65231 12.5666 0.65231 11.9334 1.04286 11.5429L11.5429 1.04287C11.9334 0.652323 12.5666 0.652323 12.9571 1.04287Z" fill="#979798"/>
</svg>
